PathFileType	4	(X/Y/Z)	s01c0101.trc
DataRate	CameraRate	NumFrames	NumMarkers	Units	OrigDataRate	OrigDataStartFrame	OrigNumFrames
200	200	5	47	mm	200	1750	2000
Frame#	Time	racr			lacr			c7			jug			rlel			rdr			llel			ldr			s2			lic			ric			lasi			rasi			rpsi			lpsi			rgt			lgt			rth1			rth2			rth3			rth4			rlfc			rsh1			rsh2			rsh3			rsh4			rlmal			rmmal			rcal			rtoe			rmt5			lth1			lth2			lth4			lth3			llfc			lsh1			lsh2			lsh3			lsh4			llmal			lcal			ltoe			lmt5			SBIKE			LBIKE			RBIKE			
		X1	Y1	Z1	X2	Y2	Z2	X3	Y3	Z3	X4	Y4	Z4	X5	Y5	Z5	X6	Y6	Z6	X7	Y7	Z7	X8	Y8	Z8	X9	Y9	Z9	X10	Y10	Z10	X11	Y11	Z11	X12	Y12	Z12	X13	Y13	Z13	X14	Y14	Z14	X15	Y15	Z15	X16	Y16	Z16	X17	Y17	Z17	X18	Y18	Z18	X19	Y19	Z19	X20	Y20	Z20	X21	Y21	Z21	X22	Y22	Z22	X23	Y23	Z23	X24	Y24	Z24	X25	Y25	Z25	X26	Y26	Z26	X27	Y27	Z27	X28	Y28	Z28	X29	Y29	Z29	X30	Y30	Z30	X31	Y31	Z31	X32	Y32	Z32	X33	Y33	Z33	X34	Y34	Z34	X35	Y35	Z35	X36	Y36	Z36	X37	Y37	Z37	X38	Y38	Z38	X39	Y39	Z39	X40	Y40	Z40	X41	Y41	Z41	X42	Y42	Z42	X43	Y43	Z43	X44	Y44	Z44	X45	Y45	Z45	X46	Y46	Z46	X47	Y47	Z47	
1750	8.7500	470.159973	1327.257935	-110.518417	496.309509	1335.493286	-405.976776	422.960449	1399.871338	-257.745728	437.449097	1239.130981	-265.199341	565.018494	1067.530640	-40.036663	722.198181	850.205994	-73.511505	579.456909	1070.075684	-476.284576	722.169495	854.483643	-414.702301	-83.108223	1135.585571	-257.646759	82.532646	1154.650024	-433.536285	82.788994	1146.624390	-108.582916	86.499336	1101.985596	-412.129700	108.382355	1101.326294	-138.708282	-51.946854	1176.776733	-206.946640	-58.080879	1179.423706	-312.255341	32.340862	1027.285400	-73.574051	31.106373	1023.376038	-461.904999	125.366203	924.840759	-54.924549	189.338623	871.799622	-54.854576	254.314896	809.171204	-65.279991	226.270569	911.943237	-68.224068	306.793640	717.204895	-84.528503	223.163803	635.846497	-55.661903	169.622177	570.244690	-61.701473	106.375031	508.429626	-75.657921	247.947830	530.137756	-112.921143	11.566228	426.849121	-97.495628	57.025646	420.981018	-174.774841	-38.329361	423.502777	-154.099243	181.957108	266.239014	-134.038956	76.204979	296.134735	-67.443581	139.150497	946.343933	-467.566162	225.990936	936.694092	-462.612396	234.859619	991.902832	-459.277832	308.607727	919.384583	-443.976471	404.475128	868.665894	-419.258911	361.374359	761.020081	-447.794128	348.042206	676.026184	-442.550629	332.326447	591.971313	-429.402527	403.604401	669.096802	-416.237732	304.912476	474.506012	-412.555176	253.636688	450.540039	-369.486725	519.693420	369.917816	-367.096863	414.614807	372.797729	-436.788086	-224.500397	893.158020	-250.213165	-12.124216	84.278313	-453.564758	-20.268921	80.684433	-53.680733	
1751	8.7550	470.011444	1327.163086	-110.234207	496.326538	1335.409546	-405.818451	423.002411	1399.860718	-257.622864	437.412903	1238.984497	-264.955902	565.001526	1067.508911	-40.006046	722.133362	850.184082	-73.548683	579.416870	1070.024658	-476.049011	722.167664	854.438538	-414.612030	-83.066292	1135.611816	-257.489807	82.295357	1154.675903	-433.466431	82.944176	1146.610352	-108.446060	86.520981	1101.850464	-412.118225	108.439659	1101.363159	-138.834167	-51.880898	1176.841553	-206.841232	-58.010902	1179.421265	-312.166412	32.640625	1027.608765	-73.435356	30.949036	1022.835938	-461.572205	126.340752	925.924377	-54.632175	190.825150	873.474487	-54.489929	256.393524	811.430542	-64.816986	227.372513	913.928223	-67.850578	309.451965	720.185974	-83.962891	225.115814	640.066711	-55.229961	170.738876	574.990112	-61.327229	106.685043	514.100708	-75.278809	245.798569	535.356079	-111.767754	10.971952	432.949646	-98.037361	56.482410	427.293915	-174.599533	-38.859116	429.902557	-154.006943	180.768112	271.961700	-134.064316	75.111000	302.109039	-67.414787	138.233475	944.146667	-467.637421	224.920135	933.469604	-462.784515	234.514206	987.932434	-458.795959	307.308044	914.912048	-443.941711	402.718079	862.970703	-419.300018	360.428162	754.912048	-447.994690	347.736694	669.847839	-442.610229	332.651520	585.695129	-429.453094	403.407257	663.263855	-416.077484	305.950317	468.155121	-412.593781	254.911804	443.779236	-369.257385	520.693787	364.067108	-367.298004	415.715637	366.694916	-436.741425	-224.517319	893.156250	-250.239456	-12.136415	84.296799	-453.552063	-20.272923	80.670990	-53.683819	
1752	8.7600	469.898895	1327.112915	-109.953796	496.362213	1335.321655	-405.676422	423.087891	1399.844238	-257.500214	437.373749	1238.855103	-264.724274	565.052856	1067.526611	-40.000263	722.119568	850.192322	-73.584694	579.410583	1069.965698	-475.763214	722.167236	854.378296	-414.520325	-82.994507	1135.677368	-257.370148	82.149757	1154.779419	-433.446625	83.087715	1146.608154	-108.320030	86.565483	1101.742676	-412.105865	108.513077	1101.446655	-138.965378	-51.830666	1176.940918	-206.742676	-57.912888	1179.426758	-312.066437	32.941509	1027.942871	-73.297607	30.773464	1022.242004	-461.200409	127.229553	927.024170	-54.415695	192.278168	875.264648	-54.071854	258.850983	813.887939	-64.309845	228.435440	916.067261	-67.502808	312.021545	723.393677	-83.446060	227.029495	644.392761	-54.779362	172.022293	579.986023	-60.905510	107.259232	519.661377	-74.939423	242.019714	541.228821	-110.083130	10.716569	439.310425	-97.925812	56.167061	433.316650	-174.349808	-39.061012	436.327789	-153.904053	180.004639	277.562134	-134.010452	74.337616	308.056458	-67.327988	137.282471	941.964294	-467.701752	223.813141	930.016357	-462.902832	233.744446	984.286377	-459.044617	305.882141	910.357178	-443.950348	400.964752	857.322876	-419.400452	359.477844	748.746216	-448.149384	347.400299	663.610107	-442.728546	332.747864	579.371094	-429.531464	402.934753	657.543823	-415.985229	306.644348	461.865417	-412.713989	255.303268	437.748383	-369.624207	521.739990	358.269287	-367.283936	416.552399	360.675537	-436.722931	-224.518890	893.158752	-250.248734	-12.136817	84.252213	-453.540161	-20.279305	80.686775	-53.677876	
1753	8.7650	469.813721	1327.115967	-109.662682	496.415283	1335.268921	-405.496948	423.203156	1399.862549	-257.372314	437.405182	1238.826660	-264.504944	565.159058	1067.566406	-40.051636	722.081238	850.218384	-73.632881	579.489990	1069.967529	-475.479309	722.189270	854.297363	-414.428497	-82.932365	1135.779785	-257.281494	82.075851	1154.927124	-433.414093	83.192856	1146.644775	-108.203423	86.640999	1101.655762	-412.115387	108.540672	1101.599609	-139.094757	-51.754162	1177.083130	-206.633194	-57.780182	1179.442505	-312.018860	33.172081	1028.349121	-73.143715	30.692665	1021.728333	-460.871796	128.186157	928.230042	-54.126335	193.764099	877.133850	-53.665459	260.997406	816.500916	-63.923470	229.429047	918.369446	-67.137413	314.748444	727.012939	-82.611397	229.096207	648.925415	-54.304184	173.403976	585.012695	-60.410015	108.004921	525.379578	-74.550110	236.448212	547.811096	-107.816978	11.032044	445.699188	-97.818260	56.374920	439.446686	-174.122421	-38.901478	442.779205	-153.799271	179.282547	283.068390	-133.951416	73.828156	313.973083	-67.263817	136.299973	939.792297	-467.756958	222.648834	926.602356	-463.007935	233.258041	980.787292	-459.083893	304.463745	905.828613	-444.000977	399.047516	851.539246	-419.463257	357.847321	742.035217	-448.064392	346.712494	657.525269	-442.981689	332.643585	573.059509	-429.625488	402.264832	651.641968	-415.826996	307.055634	455.387329	-412.716949	255.595734	431.671539	-369.868866	522.263184	352.673615	-367.395874	417.101349	354.732971	-436.745697	-224.525970	893.144775	-250.271652	-12.141963	84.277390	-453.552643	-20.277411	80.677643	-53.672775	
1754	8.7700	469.787445	1327.151245	-109.387169	496.502686	1335.214355	-405.316467	423.331696	1399.907471	-257.247742	437.419952	1238.818970	-264.294403	565.277710	1067.654419	-40.113541	722.067139	850.233887	-73.670288	578.792725	1069.886963	-476.076233	722.256531	854.236633	-414.388947	-82.856438	1135.918579	-257.206268	82.020126	1155.052979	-433.358185	83.245995	1146.715576	-108.092194	86.777405	1101.585083	-412.111237	108.524551	1101.753052	-139.197708	-51.697247	1177.233643	-206.594604	-57.635986	1179.464600	-311.981537	33.392719	1028.796997	-73.008415	30.578375	1021.170532	-460.575562	129.062119	929.526733	-53.799908	195.244431	879.222168	-53.246555	263.182434	819.307556	-63.545898	230.440903	920.883484	-66.734802	317.459290	730.861511	-82.007530	231.192139	653.603882	-53.812771	174.969284	590.105591	-59.942036	109.086632	531.116150	-74.174904	227.315857	555.776428	-104.595695	11.536088	451.934052	-97.652023	56.764938	445.378845	-173.878662	-38.352879	449.255310	-153.681030	178.863052	288.307739	-133.966858	73.570030	319.770966	-67.182800	135.289093	937.625977	-467.801453	221.407089	923.162170	-463.038116	232.779404	977.229065	-459.267883	302.919617	901.249756	-443.998260	397.071594	845.648621	-419.556946	357.109619	736.426697	-448.709442	345.771088	651.354492	-443.233368	332.229858	566.800354	-429.712036	401.332336	645.786133	-415.709778	307.206360	449.153320	-412.789276	255.659302	425.177673	-369.678497	522.463013	347.056702	-367.371704	417.492798	348.840607	-436.872894	-224.525223	893.156372	-250.275681	-12.135936	84.295029	-453.534393	-20.269674	80.675751	-53.672478	
